<svg xmlns="http://www.w3.org/2000/svg" viewBox="0 0 512 512" xml:space="preserve"><path style="fill:#0084ff" d="m486.305 321.422-36.052-29.691A198.5 198.5 0 0 0 453.486 256a198.6 198.6 0 0 0-3.233-35.733l36.052-29.692a16 16 0 0 0 3.693-20.37l-42.704-73.963a15.97 15.97 0 0 0-19.483-6.983l-43.773 16.397c-18.097-15.427-39.01-27.64-61.864-35.766l-7.679-46.053a16.005 16.005 0 0 0-15.791-13.387h-85.408a16.004 16.004 0 0 0-15.789 13.388l-7.678 46.05c-22.856 8.127-43.771 20.342-61.867 35.768L84.19 89.26c-7.312-2.775-15.566.192-19.484 6.982l-42.704 73.964a16 16 0 0 0 3.693 20.37l36.052 29.691a198.6 198.6 0 0 0-3.232 35.732 198.5 198.5 0 0 0 3.233 35.732l-36.052 29.692a16 16 0 0 0-3.693 20.37l42.704 73.964c3.918 6.79 12.181 9.768 19.484 6.982l43.772-16.397c18.097 15.427 39.011 27.641 61.865 35.767l7.679 46.052c1.278 7.731 7.984 13.388 15.79 13.388h85.408a16.006 16.006 0 0 0 15.789-13.388l7.678-46.051c22.856-8.127 43.771-20.341 61.867-35.768l43.772 16.397c7.324 2.775 15.565-.193 19.483-6.982l42.704-73.964a16 16 0 0 0-3.693-20.371"/><path style="fill:#ffaf00" d="M310.022 320.056v176.806a15.98 15.98 0 0 1-11.317 4.686h-85.408c-3.769 0-7.27-1.313-10.036-3.544V320.056z"/><path style="fill:#ffd41d" d="M310.022 151.555v94.927l-53.381 32.027-53.381-32.027v-94.927c-39.228 19.986-64.055 59.844-64.056 104.442-.001 66.879 54.481 117.408 117.375 117.439 64.782.033 117.497-52.662 117.497-117.438.002-44.597-24.827-84.457-64.054-104.443"/><path d="M235.082 418.321c-5.771 0-10.449-4.678-10.449-10.449v-4.678c0-5.771 4.678-10.449 10.449-10.449s10.449 4.678 10.449 10.449v4.678c0 5.771-4.679 10.449-10.449 10.449"/><path d="m492.948 313.357-31.393-25.855a210 210 0 0 0 2.38-31.502c0-10.534-.8-21.104-2.381-31.504l31.394-25.856c10.032-8.262 12.595-22.42 6.099-33.66L456.35 91.029c-4.704-8.173-13.479-13.25-22.903-13.25-3.19 0-6.326.573-9.302 1.695l-38.108 14.274c-16.546-13.286-34.848-23.869-54.55-31.54l-6.683-40.082A26.37 26.37 0 0 0 298.704 0h-85.408A26.365 26.365 0 0 0 187.2 22.119l-6.684 40.088c-19.703 7.673-38.007 18.255-54.553 31.542L87.898 79.492a26.2 26.2 0 0 0-9.338-1.715c-9.413 0-18.191 5.074-22.903 13.241l-42.702 73.96c-6.499 11.244-3.935 25.403 6.097 33.665l31.394 25.855a210 210 0 0 0-2.38 31.503c0 10.534.8 21.103 2.38 31.503L19.052 313.36c-10.032 8.262-12.595 22.42-6.099 33.66l42.703 73.963c4.716 8.171 13.492 13.247 22.904 13.247a26.1 26.1 0 0 0 9.294-1.703l38.107-14.275c16.547 13.287 34.85 23.87 54.551 31.541l6.682 40.075A26.365 26.365 0 0 0 213.297 512h85.408a26.37 26.37 0 0 0 26.096-22.118l6.683-40.089c19.705-7.673 38.008-18.255 54.554-31.542l38.07 14.261a26.3 26.3 0 0 0 9.336 1.713c9.411 0 18.185-5.074 22.9-13.241l42.703-73.962a26.38 26.38 0 0 0-6.099-33.665M299.573 491.025a6 6 0 0 1-.868.077H245.53v-49.427c0-5.771-4.678-10.449-10.449-10.449s-10.449 4.678-10.449 10.449v49.427H213.71V376.504c13.606 4.844 28.061 7.375 42.865 7.382h.07c14.852 0 29.325-2.528 42.928-7.376zm-42.931-128.037h-.057c-58.964-.029-106.933-48.026-106.932-106.99.001-34.314 16.175-65.814 43.158-85.745v76.229c0 3.671 1.926 7.072 5.073 8.96l53.381 32.027a10.46 10.46 0 0 0 10.752 0l53.381-32.027a10.45 10.45 0 0 0 5.073-8.96v-76.229c26.983 19.931 43.158 51.432 43.157 85.747 0 28.528-11.143 55.382-31.374 75.614-20.232 20.232-47.085 31.374-75.612 31.374m224.307-26.418-42.705 73.965c-1.326 2.296-4.122 3.423-6.769 2.42l-43.772-16.397a10.45 10.45 0 0 0-10.444 1.834c-16.925 14.428-36.026 25.589-56.79 33.212v-64.78a129 129 0 0 0 26.56-20.434c24.179-24.18 37.495-56.281 37.495-90.391.001-48.242-26.73-91.831-69.761-113.754a10.448 10.448 0 0 0-15.192 9.31v89.011l-42.932 25.759-42.932-25.759v-89.011c0-3.635-1.89-7.009-4.989-8.909a10.45 10.45 0 0 0-10.203-.401c-43.03 21.922-69.761 65.51-69.762 113.752-.001 34.743 13.583 67.154 38.247 91.26a129.6 129.6 0 0 0 25.809 19.585v65.235c-21.258-7.63-40.795-18.958-58.071-33.684a10.45 10.45 0 0 0-10.443-1.833l-43.83 16.419a5.3 5.3 0 0 1-1.905.353 5.57 5.57 0 0 1-4.805-2.796l-42.706-73.968a5.546 5.546 0 0 1 1.288-7.076L68.389 299.8a10.45 10.45 0 0 0 3.635-9.944 188.7 188.7 0 0 1 .002-67.71 10.45 10.45 0 0 0-3.636-9.944l-36.051-29.691a5.546 5.546 0 0 1-1.287-7.08l42.705-73.966c1.323-2.294 4.109-3.429 6.769-2.419l43.772 16.395c3.555 1.33 7.554.63 10.444-1.833 17.417-14.847 37.129-26.244 58.59-33.876a10.45 10.45 0 0 0 6.805-8.126l7.679-46.059a5.54 5.54 0 0 1 5.482-4.649h85.408a5.544 5.544 0 0 1 5.485 4.656l7.679 46.053a10.45 10.45 0 0 0 6.806 8.126c21.459 7.631 41.17 19.027 58.586 33.873a10.45 10.45 0 0 0 10.444 1.833L431.5 99.034a5.5 5.5 0 0 1 1.95-.358 5.55 5.55 0 0 1 4.798 2.789l42.706 73.967a5.546 5.546 0 0 1-1.288 7.076L443.614 212.2a10.45 10.45 0 0 0-3.635 9.944 188.7 188.7 0 0 1-.002 67.708 10.45 10.45 0 0 0 3.636 9.944l36.051 29.691a5.55 5.55 0 0 1 1.285 7.083"/></svg>