<?xml version='1.0' encoding='utf-8'?>
<svg xmlns="http://www.w3.org/2000/svg" version="1.1" width="1025px" height="769px" viewBox="27 680 1025 769"> <g id="layer1"> <g style="fill:rgb(0,174,199); fill-opacity:1.0; stroke-linejoin: miter"> <path d="M26.999002,679.45306C26.854216,679.45306,26.71536,679.51056,26.612982,679.6129C26.510603,679.7153,26.453087,679.8542,26.453087,679.99896L26.454086,1448.9999C26.454086,1449.3014,26.698502,1449.5458,27.000002,1449.5458L1052.0009,1449.5468C1052.1456,1449.5468,1052.2844,1449.4893,1052.3868,1449.3868C1052.4893,1449.2844,1052.5468,1449.1456,1052.5468,1449.0009L1052.5458,679.99994C1052.5458,679.6984,1052.3014,679.45404,1051.9999,679.45404L26.999002,679.45306 Z"/> </g> <g style="fill:rgb(0,0,0); fill-opacity:0.3882353; stroke-linejoin: miter"> <path d="M935.3415,1281.5703L931.86017,1282.167Q926.3599,1282.5675,916.1517,1282.9327Q913.9902,1283.1375,874.9334,1283.9476Q840.39246,1284.5706,787.01904,1285.051Q760.1478,1285.2913,731.1558,1285.4678Q656.82007,1285.8538,639.4082,1285.8549Q575.06213,1286.0181,502.23346,1285.9271Q418.0575,1285.7211,404.93335,1285.615Q374.81946,1285.47,347.79807,1285.2708Q293.7555,1284.8726,252.08313,1284.2572Q159.04315,1282.768,174.8088,1281.1625Q181.73837,1280.3628,209.11609,1279.6875Q222.80495,1279.3499,241.60582,1279.0431Q248.1142,1278.867,308.9048,1278.1997Q409.93384,1277.2146,553.98157,1277.1725Q589.9936,1277.183,623.31683,1277.2524Q704.2726,1277.4778,717.23724,1277.5935Q775.81775,1277.9092,823.64355,1278.4604Q871.4695,1279.012,898.84735,1279.6876Q912.5362,1280.0254,921.113,1280.394Q938.0821,1281.343,935.3415,1281.5703"/> </g> <g style="fill:rgb(125,139,150); fill-opacity:1.0; stroke-linejoin: miter"> <path d="M319.1958,924.4669C319.18347,924.4669,319.17133,924.4675,319.15918,924.468L319.1585,924.46924C311.58386,924.4397,305.74976,930.2499,305.70245,937.82886L304.01007,1208.7754C303.96277,1216.3668,309.7444,1222.2206,317.33417,1222.2844L317.33545,1222.2856L780.173,1225.162L780.173,1225.1631C787.7632,1225.2084,793.61884,1219.4286,793.66614,1211.8367L795.3571,940.88916C795.40454,933.3096,789.6423,927.4252,782.0648,927.37744L782.04364,927.37744C782.04095,927.37756,782.036,927.37744,782.02966,927.37744L319.1958,924.4669 Z"/> </g> <g style="fill:rgb(0,0,0); fill-opacity:1.0; stroke-linejoin: miter"> <path d="M325.3537,969.75134L670.47046,969.7527L670.4704,1193.5792L325.3537,1193.5807L325.3537,969.75134"/> </g> <g style="fill:rgb(56,110,86); fill-opacity:1.0; stroke-linejoin: miter"> <path d="M335.77487,976.5099L497.91223,976.5105L660.04944,976.5111Q660.04944,1081.6658,660.04944,1186.8203Q497.91223,1186.821,335.77487,1186.8215Q335.77487,1081.6658,335.77487,976.5099"/> </g> <g style="fill:rgb(255,255,255); fill-opacity:1.0; stroke-linejoin: miter"> <path d="M259.52722,1243.5753C259.4137,1261.7725,271.88757,1276.506,287.49036,1276.6033L809.3375,1279.8832C824.9406,1279.9636,837.59735,1265.3898,837.71155,1247.1904L259.52692,1243.5923 Z"/> </g> <g style="fill:rgb(255,255,255); fill-opacity:1.0; stroke-linejoin: miter"> <path d="M319.29993,907.77625C302.75934,907.6726,289.11407,921.1826,289.01074,937.72424L287.31805,1208.6707C287.2146,1225.2115,300.6905,1238.8566,317.23145,1238.9601L780.06805,1241.8706C796.6095,1241.9568,810.25464,1228.4814,810.3579,1211.9413L812.04865,940.9944C812.1523,924.4535,798.67676,910.7742,782.1358,910.6708L319.3,907.7938 Z M319.19232,925.0143L782.02826,927.9243C789.31683,927.9535,794.8551,933.59424,794.80963,940.886L793.1187,1211.8329C793.0731,1219.1223,787.4643,1224.6588,780.176,1224.6144L317.3388,1221.7374C310.0503,1221.6748,304.51215,1216.0668,304.55756,1208.7788L306.25,937.83276C306.29553,930.5414,311.90356,924.97,319.19232,925.0156 Z"/> </g> <g style="fill:rgb(0,0,0); fill-opacity:1.0; stroke-linejoin: miter"> <path d="M505.52222,1252.0095L591.6297,1252.5652C592.95807,1252.5563,594.02136,1253.6321,594.0129,1254.9615C594.0043,1256.291,592.9283,1257.3538,591.5998,1257.3456L505.49188,1256.8252C504.1634,1256.7996,503.1007,1255.7235,503.109,1254.3949C503.11737,1253.0663,504.19336,1252.0013,505.52222,1252.0095 Z"/> </g> <g style="fill:rgb(255,199,161); fill-opacity:1.0; stroke-linejoin: miter"> <path d="M576.10364,1205.4365Q574.40826,1205.3315,569.3941,1208.2024Q568.9199,1211.1106,568.9559,1213.4042Q568.95264,1215.5245,569.49677,1220.992L579.06024,1211.0293Q578.66907,1207.8037,578.04224,1206.7045Q577.3788,1205.4252,576.12366,1205.4365 Z"/> </g> <g style="fill:rgb(179,225,238); fill-opacity:1.0; stroke-linejoin: miter"> <path d="M654.9385,1008.5663L617.19147,1020.39197L615.7012,1026.189L591.81946,1036.2319C588.1646,1038.4109,585.6537,1041.3186,584.0729,1044.862C582.66656,1048.0145,581.32135,1053.594,580.7849,1061.739C578.91583,1090.119,575.144,1139.1593,568.9332,1208.8259L577.7465,1206.9006L653.3793,1202.0226C663.7969,1199.1558,677.7773,1195.8623,695.2448,1191.8099C699.4418,1190.8362,702.9362,1189.6001,705.8194,1188.4575C714.5741,1184.9882,720.1003,1180.373,722.52484,1174.646C724.3639,1170.3013,724.8632,1164.2361,723.9143,1156.3885C723.6054,1153.8333,723.1925,1150.7681,722.43445,1147.2397C718.6781,1129.7577,716.8415,1120.0321,716.4767,1118.1038C715.9517,1115.3281,714.61456,1101.1796,712.43713,1075.5625C711.9647,1070.0079,710.6046,1065.4648,709.1374,1061.8188C706.72943,1055.8344,702.65533,1050.4523,696.9811,1045.5156C690.95605,1040.2738,676.3378,1034.5728,659.4285,1023.7157L655.10724,1008.8447 Z"/> </g> <g style="fill:rgb(0,0,0); fill-opacity:1.0; stroke-linejoin: miter"> <path d="M684.75195,1194.8843Q659.3831,1199.9674,646.35846,1201.5312Q630.4098,1203.5199,618.8321,1203.1868Q607.8725,1202.8807,600.9865,1200.4775Q594.21765,1198.3281,585.4189,1192.0663Q584.4853,1200.7241,583.406,1201.6227Q582.6871,1202.8741,581.2926,1204.196Q572.49585,1211.05,571.606,1212.734Q569.2654,1215.7261,569.1149,1220.1643Q569.0866,1222.6029,569.33734,1223.3679L689.5302,1223.2367Q683.513,1203.302,684.7516,1194.8962 Z"/> </g> <g style="fill:rgb(0,0,0); fill-opacity:1.0; stroke-linejoin: miter"> <path d="M630.48145,1036.0542L626.2578,1034.9585L621.62616,1038.553L624.31616,1049.1246L600.16364,1197.2759L600.1557,1197.5027L607.5698,1208.6875L618.63403,1202.6274L632.3319,1048.408L635.505,1043.4999L630.5242,1036.1178 Z"/> </g> <g style="fill:rgb(255,255,255); fill-opacity:1.0; stroke-linejoin: miter"> <path d="M570.49976,1135.1821L564.2329,1139.4111L630.7889,1173.6023L684.5794,1146.7252L689.7072,1144.0834L679.3335,1138.5555Q660.7461,1141.7719,652.31525,1143.9531Q641.26575,1146.7252,635.8128,1150.1233Q630.1915,1153.3179,624.4628,1160.6033Q622.8677,1151.7303,612.95447,1147.3472Q604.1577,1142.9003,570.55554,1135.1953 Z"/> </g> <g style="fill:rgb(117,65,29); fill-opacity:1.0; stroke-linejoin: miter"> <path d="M561.85504,1137.1056L569.4005,1161.7812L628.6919,1188.3696L692.317,1166.8926L692.17804,1142.5641L632.38824,1163.5006L618.4132,1162.1224L561.9846,1137.1628 Z"/> </g> <g style="fill:rgb(255,199,161); fill-opacity:1.0; stroke-linejoin: miter"> <path d="M651.0308,1163.0995Q645.5089,1164.3698,644.8972,1173.3846Q640.737,1174.1161,635.1582,1175.6577Q633.7716,1175.9586,632.2503,1176.0094Q628.40826,1176.115,624.42804,1174.0605Q622.4601,1173.0599,620.0713,1171.4956L610.68976,1165.1057Q608.6428,1163.8337,607.3364,1163.4716Q604.7662,1162.589,603.06506,1165.0912Q597.5357,1161.8417,595.6436,1162.1548Q593.20685,1162.5101,593.0134,1164.5845Q592.666,1166.4343,598.2485,1169.8649Q597.5434,1171.0763,598.95776,1172.3345Q607.44183,1178.7435,608.5889,1179.844Q612.2339,1182.8462,617.23724,1188.234Q618.61505,1189.4813,620.2953,1190.4545Q624.2644,1192.8228,633.20026,1195.1548Q643.1699,1197.7047,650.6942,1198.3701Q658.7078,1199.0552,663.1428,1196.6849Q669.2791,1193.5406,669.1717,1188.8179Q668.9997,1183.8958,666.2283,1181.0836Q665.2387,1180.0751,662.9349,1178.8593L657.48224,1179.0859L653.4483,1173.512Q653.6977,1170.1833,653.4156,1169.2446L652.59845,1166.9728Q652.1239,1164.0376,651.9896,1163.9543Q651.66614,1163.1368,651.0483,1163.1008 Z"/> </g> <g style="fill:rgb(0,0,0); fill-opacity:0.09019608; stroke-linejoin: miter"> <path d="M585.92303,1074.6598L583.02216,1136.977Q585.1075,1121.6431,585.68274,1109.1616Q585.9787,1102.8264,586.03174,1094.9741Q586.0904,1088.0466,585.9242,1074.6598 Z M668.82477,1083.7117L671.66144,1114.339L684.6689,1141.081L668.833,1083.7406L668.82477,1083.7117 Z M584.8853,1168.7072L585.0777,1192.3018Q585.3838,1188.0022,585.4797,1185.6163Q585.5945,1182.9159,585.5746,1180.5189Q585.5365,1175.7537,584.8862,1168.7147L584.8853,1168.7072 Z"/> </g> <g style="fill:rgb(16,9,0); fill-opacity:1.0; stroke-linejoin: miter"> <path d="M635.72974,941.583Q629.31915,942.1384,622.10114,946.5128Q614.9428,950.71436,612.67957,955.62195Q610.71014,959.5376,610.4698,968.27673Q610.1957,985.51636,611.35046,992.6603L654.44366,998.44556Q663.05133,995.7333,663.62573,991.9912Q663.87195,991.11316,664.0045,989.7422L664.4633,983.2471Q665.8464,971.7296,665.83704,969.313Q666.0829,963.4873,664.8802,959.88855Q662.9398,952.9745,651.99023,946.2444Q643.3034,940.6892,635.7354,941.5823 Z"/> </g> <g style="fill:rgb(255,193,161); fill-opacity:1.0; stroke-linejoin: miter"> <path d="M645.03796,955.68494L645.03796,955.6854L645.03796,955.6858L645.03796,955.6864L645.03796,955.68677L645.03796,955.6874L645.03796,955.68774L634.2537,957.87695C633.07477,958.0851,630.33624,958.1168,626.0382,957.97217L624.08026,958.1765C622.4535,958.46765,620.8151,959.29224,619.16187,960.6461C616.636,962.71436,615.0893,965.7623,614.3208,969.75684C613.7777,972.57996,613.78,978.7926,614.482,988.44055C614.4958,988.63,614.34485,988.53296,614.1902,988.1024C613.23865,985.4535,612.63983,983.8541,612.3556,983.3032C611.9846,982.5841,611.645,982.0465,611.1941,981.87964C610.0836,981.4685,609.0416,982.86316,608.40466,985.97046C607.8431,988.7114,608.11804,991.35986,608.99695,993.8446C609.2939,994.6842,609.71106,995.31067,610.10944,995.81714C610.3065,996.0676,611.06836,996.6918,612.3947,997.7468C612.7154,998.00195,612.8756,998.3153,612.9797,998.57166C613.0401,998.2977,613.44934,999.9708,614.20746,1003.5908L615.15753,1006.5188C615.5146,1007.47375,615.89374,1008.29553,616.2341,1009.0143C616.4147,1009.3955,616.92914,1010.23535,617.8397,1011.5065L618.2321,1012.53064C618.65735,1013.63367,618.40247,1014.10535,617.1424,1021.1332C625.7169,1030.8118,629.57605,1032.1937,629.57605,1032.1937C633.4442,1031.2944,643.00037,1027.1196,648.7505,1022.15735C653.72327,1017.8661,656.77203,1014.5276,656.77203,1014.5276C657.0087,1013.74426,657.07666,1013.563,656.66125,1011.6908C656.5511,1011.5979,657.0378,1010.5293,658.0503,1008.4496C658.22925,1008.08154,658.29083,1007.67163,658.3953,1007.2711C658.50476,1006.8512,658.43176,1005.5586,658.2357,1003.3529C658.19293,1002.8722,658.3211,1002.527,658.4202,1002.29736C658.54663,1002.00464,658.84393,1001.7202,659.3669,1001.46533L662.8399,1000.24963C663.245,1000.048,663.65906,999.6826,664.0484,999.1295C664.4505,998.5585,664.77985,997.8093,665.09247,996.9127C666.73395,992.20764,667.47723,989.635,667.54675,989.203C667.81384,987.5432,667.8062,986.25085,667.242,985.3043C666.49786,984.0559,665.5565,983.5387,664.4762,983.81055C663.926,983.949,663.43195,984.5344,662.83875,985.4C662.6135,985.72876,661.7464,987.6426,660.22516,991.1819C659.96576,991.7853,659.751,991.92664,659.6866,991.67615C659.6028,991.3495,659.5599,990.58936,659.6927,989.3982C660.72534,980.13306,661.1383,974.7446,661.10156,973.20654C661.0202,969.80664,660.74695,966.8981,659.69403,964.61914C656.6625,958.0581,651.69934,955.1256,645.11163,955.67676L645.03796,955.68494L645.03796,955.6854L645.03796,955.68494L645.03796,955.6854L645.03796,955.68494L645.03796,955.6854 Z"/> </g> <g style="fill:rgb(255,0,0); fill-opacity:0.09803922; stroke-linejoin: miter"> <path d="M618.04895,1012.3777L618.04895,1012.37805L630.02686,1032.2108L653.83154,1014.0033C648.99536,1018.1471,645.29913,1020.87463,642.7743,1022.24365C639.81195,1023.8496,637.1546,1024.6177,634.7695,1024.5105C629.92,1024.2927,624.35583,1020.26733,618.07776,1012.41296L618.04895,1012.3777 Z"/> </g> </g> </svg>